<?xml version="1.0" standalone="no"?>
<!DOCTYPE svg PUBLIC "-//W3C//DTD SVG 20010904//EN"
 "http://www.w3.org/TR/2001/REC-SVG-20010904/DTD/svg10.dtd">
<svg version="1.0" xmlns="http://www.w3.org/2000/svg"
 width="1621.000000pt" height="1621.000000pt" viewBox="0 0 1621.000000 1621.000000"
 preserveAspectRatio="xMidYMid meet">
<metadata>
Created by potrace 1.14, written by Peter Selinger 2001-2017
</metadata>
<g transform="translate(0.000000,1621.000000) scale(0.100000,-0.100000)"
fill="#000000" stroke="none">
<path d="M7768 16205 c-2 -2 -60 -6 -129 -9 -69 -4 -141 -8 -160 -11 -19 -2
-73 -6 -120 -10 -47 -3 -95 -7 -105 -9 -10 -2 -48 -7 -84 -10 -36 -4 -75 -8
-85 -10 -11 -2 -45 -7 -76 -10 -31 -4 -65 -8 -75 -10 -11 -2 -41 -7 -69 -10
-27 -4 -72 -11 -100 -16 -27 -6 -113 -22 -190 -36 -77 -14 -186 -37 -243 -50
-56 -13 -113 -26 -125 -28 -104 -20 -577 -157 -742 -216 -44 -16 -114 -40
-155 -55 -41 -15 -84 -30 -95 -35 -11 -5 -65 -27 -120 -49 -242 -95 -583 -253
-780 -361 -44 -24 -105 -57 -135 -73 -30 -17 -68 -38 -85 -49 -16 -10 -39 -22
-50 -27 -11 -6 -49 -28 -85 -50 -36 -22 -90 -54 -120 -72 -30 -18 -59 -37 -65
-41 -5 -4 -89 -60 -185 -124 -301 -200 -631 -456 -889 -689 -223 -200 -501
-481 -661 -665 -36 -41 -70 -79 -76 -85 -44 -41 -372 -460 -466 -595 -278
-401 -430 -654 -627 -1045 -70 -137 -139 -279 -155 -315 -71 -164 -144 -339
-156 -375 -7 -22 -16 -44 -20 -50 -12 -16 -136 -377 -189 -550 -44 -144 -122
-431 -135 -495 -2 -14 -16 -74 -29 -135 -14 -60 -35 -162 -46 -225 -12 -63
-23 -126 -26 -140 -6 -27 -30 -196 -40 -275 -4 -27 -8 -57 -10 -65 -2 -8 -7
-46 -10 -85 -4 -38 -8 -81 -10 -95 -3 -23 -11 -105 -20 -215 -26 -307 -26
-1113 0 -1265 2 -14 6 -63 10 -110 3 -47 7 -96 9 -110 2 -14 7 -56 11 -94 4
-38 8 -79 10 -90 2 -12 6 -43 9 -71 4 -27 8 -61 11 -75 2 -14 7 -43 10 -65 3
-22 9 -62 15 -90 5 -27 12 -67 15 -88 14 -103 62 -322 121 -562 102 -414 270
-897 457 -1316 70 -157 223 -466 279 -564 19 -33 37 -67 40 -76 19 -50 382
-630 440 -704 5 -5 63 -84 130 -175 67 -91 124 -167 127 -170 3 -3 42 -50 86
-105 286 -356 739 -820 1045 -1071 19 -16 41 -35 49 -42 8 -8 69 -58 135 -111
538 -434 1173 -819 1796 -1091 91 -39 174 -76 185 -80 310 -136 896 -323 1264
-405 73 -17 414 -85 446 -90 22 -3 78 -12 125 -20 47 -7 110 -17 140 -20 30
-3 66 -8 80 -10 14 -2 48 -7 75 -10 28 -4 61 -8 75 -10 14 -2 68 -6 120 -10
52 -4 106 -9 120 -11 196 -25 1131 -25 1267 0 10 2 68 7 128 11 61 4 117 8
126 10 9 2 40 6 70 10 30 3 65 8 79 10 14 2 50 7 80 10 30 3 109 15 175 26 66
11 134 22 150 25 17 2 55 9 85 15 30 6 69 13 85 15 17 3 48 10 70 16 22 5 51
12 65 15 14 2 45 9 70 14 25 6 54 13 65 15 73 15 418 110 555 154 194 61 488
167 620 223 14 6 27 11 30 12 3 1 16 6 30 12 14 6 48 20 76 31 58 23 444 201
459 212 6 4 73 40 150 80 289 150 586 333 895 550 87 61 459 346 470 359 3 4
52 47 110 95 334 282 790 747 1013 1031 12 16 45 56 72 90 28 34 61 77 75 95
14 19 41 54 61 79 19 25 73 100 120 166 536 756 940 1598 1198 2495 16 58 32
116 35 130 3 14 19 79 36 145 17 66 32 129 34 140 3 11 9 40 15 65 5 25 12 59
15 75 12 65 18 93 31 160 15 78 42 240 49 297 3 21 8 53 11 70 3 18 7 53 10
78 2 25 6 61 9 80 8 51 15 120 21 197 3 38 7 86 10 108 13 128 20 343 19 665
0 377 -8 580 -29 755 -3 22 -7 72 -10 110 -3 39 -8 81 -10 95 -2 14 -6 50 -10
80 -3 30 -8 67 -11 82 -3 15 -7 41 -9 58 -15 114 -49 312 -76 440 -11 52 -23
104 -25 115 -2 11 -6 32 -9 46 -45 245 -250 908 -369 1194 -66 157 -145 342
-168 395 -46 101 -209 424 -268 530 -29 52 -62 111 -72 130 -11 19 -28 49 -39
65 -10 17 -22 37 -26 45 -15 33 -200 322 -281 440 -77 112 -231 323 -286 391
-12 14 -34 43 -51 64 -16 21 -35 43 -40 49 -6 6 -26 31 -45 56 -19 24 -45 55
-58 69 -12 13 -33 38 -45 53 -12 16 -35 44 -52 61 -16 18 -66 72 -110 122
-143 159 -439 450 -631 620 -77 68 -141 123 -200 172 -39 32 -87 71 -105 86
-19 15 -104 80 -189 144 -85 64 -180 135 -212 159 -31 24 -59 44 -61 44 -3 0
-61 37 -129 83 -352 238 -789 476 -1233 673 -94 41 -305 127 -405 163 -63 23
-126 47 -140 52 -100 42 -633 200 -750 224 -8 2 -42 10 -75 18 -33 9 -71 18
-85 21 -37 7 -179 37 -225 47 -22 4 -49 10 -60 13 -16 3 -185 31 -315 51 -26
4 -82 12 -150 20 -170 21 -275 31 -535 51 -63 5 -833 13 -837 9z"/>
</g>
</svg>
